<svg width="16" height="16" viewBox="0 0 16 16" fill="none" xmlns="http://www.w3.org/2000/svg">
<path d="M13.3333 6.66666C13.3333 9.99533 9.64063 13.462 8.40063 14.5327C8.28511 14.6195 8.14449 14.6665 7.99996 14.6665C7.85543 14.6665 7.71481 14.6195 7.59929 14.5327C6.35929 13.462 2.66663 9.99533 2.66663 6.66666C2.66663 5.25217 3.22853 3.89562 4.22872 2.89543C5.22892 1.89523 6.58547 1.33333 7.99996 1.33333C9.41445 1.33333 10.771 1.89523 11.7712 2.89543C12.7714 3.89562 13.3333 5.25217 13.3333 6.66666Z" stroke="#7B899D" stroke-width="1.33333" stroke-linecap="round" stroke-linejoin="round"/>
<path d="M8 8.66667C9.10457 8.66667 10 7.77124 10 6.66667C10 5.5621 9.10457 4.66667 8 4.66667C6.89543 4.66667 6 5.5621 6 6.66667C6 7.77124 6.89543 8.66667 8 8.66667Z" stroke="#7B899D" stroke-width="1.33333" stroke-linecap="round" stroke-linejoin="round"/>
</svg>
