<svg width="17" height="16" viewBox="0 0 17 16" fill="none" xmlns="http://www.w3.org/2000/svg">
<path d="M11.6934 9.33331V1.33331" stroke="#1D2530" stroke-width="1.33333" stroke-linecap="round" stroke-linejoin="round"/>
<path d="M6.35997 12.08L7.02664 9.33331H3.13997C2.93298 9.33331 2.72883 9.28512 2.54369 9.19255C2.35855 9.09998 2.1975 8.96557 2.07331 8.79998C1.94911 8.63438 1.86518 8.44215 1.82815 8.23849C1.79112 8.03484 1.80202 7.82536 1.85997 7.62665L3.41331 2.29331C3.49409 2.01636 3.66251 1.77308 3.89331 1.59998C4.1241 1.42688 4.40481 1.33331 4.69331 1.33331H13.6933C14.0469 1.33331 14.3861 1.47379 14.6361 1.72384C14.8862 1.97389 15.0266 2.31302 15.0266 2.66665V7.99998C15.0266 8.3536 14.8862 8.69274 14.6361 8.94279C14.3861 9.19284 14.0469 9.33331 13.6933 9.33331H11.8533C11.6053 9.33344 11.3621 9.40277 11.1513 9.5335C10.9405 9.66423 10.7704 9.85117 10.66 10.0733L8.35997 14.6666C8.04559 14.6628 7.73615 14.5879 7.45477 14.4476C7.17339 14.3073 6.92736 14.1052 6.73504 13.8565C6.54272 13.6078 6.4091 13.3188 6.34415 13.0112C6.2792 12.7036 6.28461 12.3852 6.35997 12.08Z" stroke="#1D2530" stroke-width="1.33333" stroke-linecap="round" stroke-linejoin="round"/>
</svg>
