<svg width="32" height="32" viewBox="0 0 32 32" fill="none" xmlns="http://www.w3.org/2000/svg">
<path d="M16 16.6667C16.3682 16.6667 16.6666 16.3682 16.6666 16C16.6666 15.6318 16.3682 15.3333 16 15.3333C15.6318 15.3333 15.3333 15.6318 15.3333 16C15.3333 16.3682 15.6318 16.6667 16 16.6667Z" stroke="#1D2530" stroke-width="1.33333" stroke-linecap="round" stroke-linejoin="round"/>
<path d="M20.6667 16.6667C21.0349 16.6667 21.3333 16.3682 21.3333 16C21.3333 15.6318 21.0349 15.3333 20.6667 15.3333C20.2985 15.3333 20 15.6318 20 16C20 16.3682 20.2985 16.6667 20.6667 16.6667Z" stroke="#1D2530" stroke-width="1.33333" stroke-linecap="round" stroke-linejoin="round"/>
<path d="M11.3334 16.6667C11.7015 16.6667 12 16.3682 12 16C12 15.6318 11.7015 15.3333 11.3334 15.3333C10.9652 15.3333 10.6667 15.6318 10.6667 16C10.6667 16.3682 10.9652 16.6667 11.3334 16.6667Z" stroke="#1D2530" stroke-width="1.33333" stroke-linecap="round" stroke-linejoin="round"/>
</svg>
