<svg width="14" height="14" viewBox="0 0 14 14" fill="none" xmlns="http://www.w3.org/2000/svg">
<path d="M13.5 12H12.7684L8.68375 0.677812C8.61646 0.480106 8.48897 0.308427 8.31915 0.186865C8.14933 0.0653032 7.94572 -4.15642e-05 7.73688 1.98351e-08H6.26312C6.05428 -4.15642e-05 5.85067 0.0653032 5.68085 0.186865C5.51103 0.308427 5.38354 0.480106 5.31625 0.677812L1.23156 12H0.5C0.367392 12 0.240215 12.0527 0.146447 12.1464C0.0526784 12.2402 0 12.3674 0 12.5L0 13.5C0 13.6326 0.0526784 13.7598 0.146447 13.8536C0.240215 13.9473 0.367392 14 0.5 14H4.5C4.63261 14 4.75979 13.9473 4.85355 13.8536C4.94732 13.7598 5 13.6326 5 13.5V12.5C5 12.3674 4.94732 12.2402 4.85355 12.1464C4.75979 12.0527 4.63261 12 4.5 12H3.88812L4.61625 10H9.38375L10.1119 12H9.5C9.36739 12 9.24021 12.0527 9.14645 12.1464C9.05268 12.2402 9 12.3674 9 12.5V13.5C9 13.6326 9.05268 13.7598 9.14645 13.8536C9.24021 13.9473 9.36739 14 9.5 14H13.5C13.6326 14 13.7598 13.9473 13.8536 13.8536C13.9473 13.7598 14 13.6326 14 13.5V12.5C14 12.3674 13.9473 12.2402 13.8536 12.1464C13.7598 12.0527 13.6326 12 13.5 12ZM5.52656 7.5L7 3.45344L8.47344 7.5H5.52656Z" fill="#333333"/>
</svg>
