<svg width="25" height="25" viewBox="0 0 25 25" fill="none" xmlns="http://www.w3.org/2000/svg">
<path d="M18.782 13.6398C18.813 13.64 18.8439 13.6401 18.8758 13.6402C19.4846 13.6478 20.1064 13.8285 20.6055 14.1846C20.643 14.2112 20.643 14.2112 20.6813 14.2385C21.4196 14.7777 21.8809 15.5808 22.0258 16.4811C22.1005 17.0125 22.0353 17.5641 21.8506 18.0664C21.8401 18.0964 21.8296 18.1263 21.8187 18.1572C21.6861 18.5138 21.4927 18.8315 21.2402 19.1162C21.2245 19.1352 21.2088 19.1541 21.1925 19.1736C21.0685 19.3204 20.9283 19.4386 20.7764 19.5557C20.7552 19.5723 20.7341 19.5889 20.7124 19.606C20.017 20.135 19.0986 20.3256 18.239 20.2314C18.0977 20.2106 17.9599 20.1793 17.8223 20.1416C17.8058 20.1372 17.7893 20.1327 17.7724 20.1281C16.9888 19.9094 16.308 19.3634 15.9009 18.6634C15.4937 17.9349 15.3236 16.9817 15.5455 16.1646C15.5555 16.1312 15.5657 16.0978 15.5762 16.0645C15.5814 16.047 15.5866 16.0296 15.592 16.0117C15.7511 15.4924 16.0218 15.0526 16.3818 14.6484C16.3963 14.6321 16.4108 14.6158 16.4258 14.599C16.8038 14.1994 17.3301 13.9201 17.8513 13.7604C17.8701 13.7546 17.8889 13.7487 17.9082 13.7427C18.1945 13.6599 18.4852 13.6385 18.782 13.6398Z" fill="#16A34A"/>
<path d="M15.9134 4.51051C15.9405 4.51048 15.9677 4.51046 15.9956 4.51043C16.4383 4.5107 16.8708 4.52858 17.3096 4.58985C17.3357 4.59338 17.3619 4.59691 17.3889 4.60055C17.745 4.64986 18.089 4.72887 18.4326 4.83399C18.46 4.84219 18.46 4.84219 18.4879 4.85055C18.8847 4.97135 19.3011 5.15702 19.6045 5.44434C19.6332 5.47021 19.6332 5.47021 19.6625 5.49661C19.8262 5.65064 19.9856 5.83741 20.0009 6.06995C20.0108 6.45292 19.9123 6.70435 19.6498 6.99073C19.3523 7.27911 18.9608 7.44684 18.5791 7.59278C18.5502 7.60402 18.5213 7.61525 18.4915 7.62683C18.0288 7.7936 17.5288 7.88053 17.041 7.93458C17.0186 7.93709 16.9962 7.93961 16.9731 7.9422C15.8904 8.05887 14.7683 7.96505 13.7207 7.66602C13.6939 7.65845 13.6939 7.65845 13.6665 7.65073C13.116 7.49161 12.4439 7.22748 12.1384 6.71254C12.0159 6.47639 11.9342 6.24593 12.0078 5.98088C12.2052 5.46389 12.6994 5.17525 13.1811 4.95931C13.7698 4.7069 14.4058 4.60615 15.0391 4.54102C15.0594 4.53869 15.0798 4.53635 15.1008 4.53394C15.3706 4.50655 15.6425 4.51068 15.9134 4.51051Z" fill="#16A34A"/>
<path d="M7.23296 8.46499C7.26269 8.46468 7.29242 8.46438 7.32306 8.46406C7.96701 8.45872 8.59532 8.46312 9.22852 8.59374C9.25759 8.59948 9.28665 8.60522 9.3166 8.61114C10.0939 8.76712 10.9677 9.0186 11.4632 9.68579C11.6003 9.89767 11.6422 10.1012 11.6211 10.3515C11.5371 10.7271 11.2044 11.0193 10.8963 11.2213C10.1647 11.681 9.29431 11.8356 8.44727 11.914C8.42869 11.9158 8.41011 11.9176 8.39096 11.9194C7.81855 11.9707 7.23579 11.9487 6.66505 11.8896C6.64099 11.8871 6.61693 11.8847 6.59214 11.8821C5.88635 11.806 5.20299 11.6445 4.56544 11.3281C4.549 11.32 4.53257 11.3119 4.51563 11.3035C4.28859 11.189 4.10808 11.0441 3.93067 10.8642C3.90768 10.8412 3.90768 10.8412 3.88423 10.8177C3.69154 10.6098 3.62606 10.3781 3.62979 10.1007C3.65538 9.80657 3.82668 9.62019 4.02833 9.42381C4.04293 9.40927 4.05753 9.39473 4.07258 9.37975C4.65156 8.84419 5.54605 8.6647 6.29273 8.53728C6.31535 8.53339 6.33796 8.5295 6.36126 8.52549C6.64989 8.47884 6.941 8.46777 7.23296 8.46499Z" fill="#16A34A"/>
<path d="M3.6133 17.2363C3.63217 17.2552 3.65105 17.2742 3.6705 17.2937C4.41756 18.0393 5.48121 18.3185 6.50331 18.4387C6.52044 18.4407 6.53757 18.4428 6.55522 18.4449C8.03964 18.6179 10.0315 18.5649 11.2667 17.5978C11.3707 17.5135 11.4654 17.4217 11.5574 17.3246C11.5704 17.3116 11.5833 17.2986 11.5967 17.2852C11.6048 17.2852 11.6128 17.2852 11.6211 17.2852C11.6242 17.4093 11.6264 17.5335 11.6278 17.6577C11.6284 17.6998 11.6293 17.742 11.6303 17.7841C11.6391 18.1423 11.5909 18.3518 11.3373 18.6188C10.4275 19.5286 8.91856 19.7051 7.69192 19.7098C6.48824 19.7092 4.9934 19.5974 4.05275 18.75C4.03553 18.7348 4.01832 18.7195 4.00058 18.7038C3.80676 18.5222 3.61546 18.2653 3.60498 17.9902C3.60499 17.9551 3.60539 17.9199 3.60614 17.8848C3.60625 17.8661 3.60635 17.8474 3.60646 17.8282C3.60686 17.7692 3.60778 17.7103 3.60872 17.6514C3.60909 17.6111 3.60942 17.5708 3.60972 17.5305C3.61052 17.4325 3.61178 17.3344 3.6133 17.2363Z" fill="#16A34A"/>
<path d="M3.61329 13.3301C3.67572 13.3913 3.73411 13.4539 3.79029 13.5208C3.92901 13.6788 4.07639 13.7981 4.25568 13.9069C4.27013 13.9157 4.28458 13.9244 4.29946 13.9335C4.52009 14.0635 4.75445 14.1555 4.99726 14.2349C5.02295 14.2434 5.04865 14.2518 5.07512 14.2605C5.27771 14.3262 5.47989 14.385 5.68849 14.4287C5.70737 14.4327 5.72626 14.4367 5.74572 14.4409C5.90498 14.474 6.06485 14.5014 6.22559 14.5264C6.24921 14.5301 6.27283 14.5339 6.29717 14.5378C7.81657 14.7672 9.87293 14.6928 11.175 13.7712C11.3106 13.6667 11.4306 13.5486 11.5495 13.4254C11.5967 13.3789 11.5967 13.3789 11.6211 13.3789C11.6235 13.5035 11.6253 13.6281 11.6265 13.7528C11.627 13.7951 11.6276 13.8374 11.6285 13.8797C11.6372 14.327 11.6372 14.327 11.5234 14.502C11.5117 14.5229 11.5 14.5439 11.4879 14.5655C11.0633 15.1992 10.2072 15.4678 9.49708 15.625C9.29469 15.6644 9.09093 15.6944 8.88673 15.7227C8.86713 15.7254 8.84754 15.7282 8.82735 15.731C8.71713 15.7464 8.60691 15.761 8.4961 15.7715C8.47393 15.7736 8.45177 15.7757 8.42893 15.7779C7.48197 15.8565 6.51178 15.8186 5.59083 15.5762C5.55714 15.5677 5.52345 15.5593 5.48974 15.551C4.92466 15.4068 4.3753 15.2144 3.95509 14.7949C3.93929 14.7794 3.92349 14.7639 3.90721 14.7479C3.62884 14.4543 3.61349 14.1545 3.61329 13.7695C3.61295 13.7254 3.6126 13.6813 3.61224 13.6372C3.61167 13.5348 3.61215 13.4325 3.61329 13.3301Z" fill="#16A34A"/>
<path d="M12.0117 9.42383C12.128 9.53982 12.128 9.53982 12.1799 9.59454C12.7658 10.2072 13.7206 10.4327 14.5264 10.5713C14.5677 10.5785 14.5677 10.5785 14.6098 10.5859C15.071 10.663 15.5272 10.678 15.9943 10.6781C16.0214 10.6781 16.0486 10.6782 16.0766 10.6782C16.564 10.6781 17.0495 10.6557 17.5293 10.5652C17.5578 10.5599 17.5863 10.5546 17.6157 10.5492C18.3865 10.4023 19.2602 10.1769 19.8242 9.59473C19.8403 9.59473 19.8565 9.59473 19.8731 9.59473C19.8796 9.57962 19.8861 9.56451 19.8929 9.54895C19.9219 9.49707 19.9219 9.49707 19.9951 9.44824C19.9976 9.57242 19.9993 9.69658 20.0005 9.82077C20.001 9.86292 20.0016 9.90506 20.0025 9.9472C20.0094 10.3007 19.9735 10.5457 19.7266 10.8154C19.0793 11.481 18.0471 11.6905 17.1631 11.8164C17.1319 11.8209 17.1319 11.8209 17.1001 11.8254C16.7475 11.8724 16.3921 11.8702 16.037 11.8713C16.0014 11.8715 16.0014 11.8715 15.9651 11.8717C14.8398 11.8764 13.2959 11.7353 12.4268 10.9375C12.4078 10.9207 12.3887 10.904 12.3692 10.8867C12.2096 10.7381 12.0812 10.56 12.0117 10.3516C12.0096 10.2813 12.0089 10.2117 12.0093 10.1415C12.0094 10.121 12.0094 10.1005 12.0094 10.0794C12.0096 10.014 12.0099 9.94854 12.0102 9.88312C12.0103 9.83876 12.0104 9.79439 12.0105 9.75003C12.0108 9.6413 12.0112 9.53256 12.0117 9.42383Z" fill="#16A34A"/>
<path d="M3.61329 15.2832C3.67293 15.3414 3.72095 15.4023 3.77046 15.4694C3.98139 15.7327 4.26386 15.8797 4.56544 16.0156C4.59374 16.0284 4.62203 16.0412 4.65118 16.0543C5.12345 16.2543 5.625 16.3647 6.12794 16.4551C6.17208 16.4633 6.17208 16.4633 6.21711 16.4717C6.643 16.5444 7.07743 16.561 7.50861 16.5591C7.58058 16.5588 7.65253 16.5591 7.72449 16.5594C8.18881 16.5598 8.64895 16.5214 9.10799 16.452C9.12462 16.4495 9.14126 16.447 9.15841 16.4444C10.0463 16.3082 10.904 16.0505 11.5405 15.3884C11.5591 15.3698 11.5776 15.3512 11.5967 15.332C11.6048 15.332 11.6128 15.332 11.6211 15.332C11.6248 15.4588 11.6274 15.5855 11.6292 15.7123C11.6299 15.7553 11.6309 15.7983 11.6322 15.8413C11.6421 16.183 11.5981 16.4082 11.3739 16.6794C10.5501 17.536 9.09364 17.7272 7.96431 17.7562C6.97464 17.7754 5.96551 17.7069 5.02931 17.3584C5.00927 17.3511 4.98922 17.3437 4.96857 17.3362C4.46806 17.1513 4.01954 16.9274 3.73537 16.4551C3.72423 16.4372 3.7131 16.4193 3.70163 16.4009C3.58291 16.1806 3.5995 15.9609 3.60567 15.7181C3.60628 15.6758 3.60684 15.6335 3.60733 15.5912C3.60867 15.4885 3.61077 15.3859 3.61329 15.2832Z" fill="#16A34A"/>
<path d="M3.61329 11.4014C3.67464 11.4613 3.73048 11.5223 3.78419 11.5891C4.50933 12.4132 5.92428 12.5932 6.95802 12.6709C7.05381 12.6746 7.14951 12.6755 7.24536 12.6759C7.27238 12.676 7.29939 12.6762 7.32723 12.6764C7.41422 12.6768 7.50121 12.677 7.58821 12.677C7.61786 12.677 7.64751 12.6771 7.67806 12.6771C8.11859 12.6768 8.54834 12.6646 8.98439 12.5977C9.00835 12.5943 9.03232 12.5909 9.05701 12.5874C9.96833 12.4569 10.8943 12.1807 11.5459 11.5012C11.5626 11.4844 11.5794 11.4675 11.5967 11.4502C11.6047 11.4502 11.6128 11.4502 11.6211 11.4502C11.6242 11.57 11.6264 11.6898 11.6278 11.8096C11.6284 11.8502 11.6292 11.8909 11.6303 11.9315C11.6378 12.2225 11.6186 12.4501 11.4468 12.6972C11.3915 12.7542 11.3362 12.8108 11.2793 12.8662C11.263 12.883 11.2468 12.8998 11.23 12.917C10.6883 13.4422 9.76451 13.6326 9.04542 13.7497C9.0223 13.7535 8.99918 13.7573 8.97536 13.7612C8.8971 13.7732 8.81879 13.7839 8.74025 13.7939C8.72356 13.7961 8.70688 13.7983 8.68969 13.8005C8.35539 13.8423 8.02341 13.8511 7.68674 13.8505C7.60255 13.8504 7.51838 13.851 7.43419 13.8516C6.34534 13.8547 4.83148 13.7079 4.00119 12.9155C3.90945 12.8242 3.82862 12.7316 3.75978 12.6221C3.74826 12.6061 3.73674 12.5902 3.72487 12.5738C3.59276 12.3626 3.6148 12.1058 3.61329 11.8652C3.61309 11.8426 3.61288 11.8199 3.61267 11.7965C3.61165 11.6648 3.61194 11.5331 3.61329 11.4014Z" fill="#16A34A"/>
<path d="M12.0117 7.4707C12.1279 7.58635 12.1279 7.58635 12.1809 7.64418C12.7748 8.27982 13.7269 8.50421 14.5508 8.64716C14.5721 8.65094 14.5935 8.65472 14.6155 8.65862C15.0449 8.72932 15.4763 8.74834 15.9107 8.7466C15.988 8.74634 16.0652 8.7466 16.1424 8.74691C16.6157 8.74726 17.0868 8.7181 17.5537 8.638C17.5843 8.63279 17.6149 8.62757 17.6464 8.6222C18.1083 8.53953 18.5444 8.40043 18.9697 8.20312C18.9856 8.19582 19.0016 8.18852 19.018 8.181C19.4023 8.00291 19.6985 7.76815 19.9951 7.4707C19.9982 7.60531 20.0004 7.73989 20.0018 7.87452C20.0024 7.92023 20.0033 7.96592 20.0043 8.01162C20.0154 8.50055 20.0154 8.50055 19.8731 8.69141C19.8552 8.71611 19.8373 8.74082 19.8189 8.76627C19.069 9.58676 17.7502 9.79924 16.6992 9.8877C16.6784 9.88945 16.6576 9.89121 16.6361 9.89302C15.3217 9.99777 13.575 9.89151 12.4863 9.05762C12.2616 8.8638 12.0233 8.61752 11.998 8.30786C11.9929 8.18074 11.9967 8.05403 12.001 7.92694C12.0019 7.88252 12.0027 7.83809 12.0034 7.79366C12.0052 7.68597 12.0082 7.57836 12.0117 7.4707Z" fill="#16A34A"/>
<path d="M12.0117 11.4014C12.1669 11.533 12.1669 11.533 12.2372 11.5996C13.1329 12.4442 14.6984 12.5931 15.8691 12.6221C15.8893 12.6227 15.9095 12.6234 15.9303 12.6241C17.3358 12.6671 18.8547 12.4604 19.9219 11.4746C19.9464 11.4503 19.9708 11.4259 19.9951 11.4014C19.9976 11.5181 19.9993 11.6349 20.0005 11.7517C20.001 11.7913 20.0016 11.8309 20.0025 11.8705C20.0103 12.2441 19.953 12.5029 19.6924 12.7826C19.4171 13.0657 19.4171 13.0657 19.2588 13.0714C19.22 13.0709 19.1813 13.0699 19.1425 13.0685C19.1216 13.0682 19.1006 13.0679 19.079 13.0675C19.012 13.0665 18.9451 13.0648 18.8782 13.063C18.5489 13.0546 18.2429 13.067 17.9199 13.1348C17.8971 13.1395 17.8743 13.1442 17.8508 13.1491C17.7982 13.1609 17.7462 13.174 17.6941 13.1882C17.6754 13.1932 17.6567 13.1983 17.6375 13.2034C17.0327 13.369 17.0327 13.369 16.5028 13.691C16.3125 13.8491 16.1295 13.8412 15.8951 13.8336C15.8558 13.8329 15.8165 13.8323 15.7772 13.8316C15.439 13.8247 15.1052 13.7942 14.7705 13.7451C14.7459 13.7417 14.7212 13.7383 14.6959 13.7348C13.9187 13.6264 12.97 13.4225 12.3779 12.8662C12.3625 12.8518 12.3471 12.8374 12.3313 12.8226C12.0488 12.5302 12.0095 12.2282 12.0117 11.8408C12.0114 11.7978 12.0111 11.7549 12.0108 11.7119C12.0101 11.6084 12.0106 11.5049 12.0117 11.4014Z" fill="#16A34A"/>
<path d="M12.0117 17.2363C12.0283 17.2529 12.045 17.2696 12.0621 17.2867C12.0735 17.2979 12.0849 17.3092 12.0967 17.3208C12.1208 17.3452 12.1443 17.3703 12.1671 17.396C12.7401 18.0209 13.7413 18.2387 14.5401 18.3777C14.567 18.3826 14.567 18.3826 14.5945 18.3876C14.6794 18.402 14.7478 18.408 14.8344 18.4C14.9288 18.3918 14.9778 18.3905 15.0635 18.4326C15.1672 18.565 15.2294 18.7264 15.2992 18.8782C15.3472 18.9762 15.405 19.0652 15.4678 19.1544C15.4788 19.17 15.4897 19.1856 15.501 19.2016C15.5945 19.3319 15.6959 19.455 15.8008 19.5762C15.8447 19.6289 15.8447 19.6289 15.8447 19.6533C14.752 19.6826 13.4325 19.5321 12.5488 18.8232C12.5292 18.8077 12.5096 18.7921 12.4894 18.776C12.3524 18.6612 12.2509 18.5364 12.1582 18.3838C12.1461 18.3655 12.1339 18.3472 12.1214 18.3283C11.9894 18.0953 12.0134 17.8137 12.0117 17.5537C12.0115 17.535 12.0113 17.5164 12.0111 17.4971C12.0102 17.4102 12.0102 17.3233 12.0117 17.2363Z" fill="#16A34A"/>
<path d="M12.0117 13.3301C12.0616 13.3695 12.1104 13.4103 12.1582 13.4521C12.1582 13.4683 12.1582 13.4844 12.1582 13.501C12.1726 13.5075 12.1871 13.514 12.202 13.5207C12.2568 13.5503 12.2922 13.5813 12.3367 13.6246C13.1507 14.3496 14.4616 14.4966 15.5029 14.5752C15.4459 14.6789 15.3889 14.7825 15.3277 14.8838C15.1731 15.1432 15.0663 15.414 14.9658 15.6982C14.1329 15.6557 13.1582 15.4297 12.5 14.8926C12.4748 14.8745 12.4496 14.8563 12.4237 14.8376C12.1454 14.5715 12.025 14.3187 12.0137 13.9409C12.0097 13.7373 12.0098 13.5337 12.0117 13.3301Z" fill="#16A34A"/>
<path d="M12.0117 15.3076C12.0985 15.3803 12.1809 15.4515 12.2574 15.535C12.885 16.1653 13.9558 16.3346 14.7949 16.4551C14.7947 16.474 14.7944 16.4929 14.7941 16.5123C14.7896 16.8955 14.7942 17.2711 14.8437 17.6514C13.96 17.5388 12.8604 17.3174 12.2558 16.6016C12.1431 16.4335 12.0621 16.2904 12.0475 16.0872C12.0453 16.0577 12.0432 16.0282 12.041 15.9978C12.0389 15.9669 12.0368 15.9361 12.0346 15.9042C12.0324 15.874 12.0302 15.8438 12.0279 15.8126C12.016 15.644 12.0084 15.4767 12.0117 15.3076Z" fill="#16A34A"/>
</svg>
