<svg width="25" height="25" viewBox="0 0 25 25" fill="none" xmlns="http://www.w3.org/2000/svg">
<path d="M22.3125 11.3771C22.499 11.2948 22.6572 11.1596 22.7676 10.9883C22.8781 10.817 22.9358 10.6171 22.9337 10.4133C22.9316 10.2094 22.8697 10.0107 22.7558 9.84174C22.6419 9.67274 22.4808 9.54088 22.2927 9.46248L13.3646 5.39582C13.0932 5.27202 12.7983 5.20795 12.5 5.20795C12.2017 5.20795 11.9068 5.27202 11.6354 5.39582L2.70834 9.45832C2.52289 9.53954 2.36512 9.67304 2.25434 9.8425C2.14356 10.012 2.08456 10.21 2.08456 10.4125C2.08456 10.6149 2.14356 10.813 2.25434 10.9825C2.36512 11.1519 2.52289 11.2854 2.70834 11.3667L11.6354 15.4375C11.9068 15.5613 12.2017 15.6254 12.5 15.6254C12.7983 15.6254 13.0932 15.5613 13.3646 15.4375L22.3125 11.3771Z" stroke="#D29F20" stroke-width="2" stroke-linecap="round" stroke-linejoin="round"/>
<path d="M22.9167 10.4167V16.6667" stroke="#D29F20" stroke-width="2" stroke-linecap="round" stroke-linejoin="round"/>
<path d="M6.25 13.0208V16.6666C6.25 17.4954 6.90848 18.2903 8.08058 18.8764C9.25269 19.4624 10.8424 19.7916 12.5 19.7916C14.1576 19.7916 15.7473 19.4624 16.9194 18.8764C18.0915 18.2903 18.75 17.4954 18.75 16.6666V13.0208" stroke="#D29F20" stroke-width="2" stroke-linecap="round" stroke-linejoin="round"/>
</svg>
