<svg width="25" height="25" viewBox="0 0 25 25" fill="none" xmlns="http://www.w3.org/2000/svg">
<path d="M15.625 2.08331H6.24999C5.69746 2.08331 5.16755 2.30281 4.77685 2.69351C4.38615 3.08421 4.16666 3.61411 4.16666 4.16665V20.8333C4.16666 21.3858 4.38615 21.9158 4.77685 22.3065C5.16755 22.6972 5.69746 22.9166 6.24999 22.9166H18.75C19.3025 22.9166 19.8324 22.6972 20.2231 22.3065C20.6138 21.9158 20.8333 21.3858 20.8333 20.8333V7.29165L15.625 2.08331Z" stroke="#EA580C" stroke-width="2" stroke-linecap="round" stroke-linejoin="round"/>
<path d="M14.5833 2.08331V6.24998C14.5833 6.80251 14.8028 7.33242 15.1935 7.72312C15.5842 8.11382 16.1141 8.33331 16.6667 8.33331H20.8333" stroke="#EA580C" stroke-width="2" stroke-linecap="round" stroke-linejoin="round"/>
<path d="M10.4167 9.375H8.33334" stroke="#EA580C" stroke-width="2" stroke-linecap="round" stroke-linejoin="round"/>
<path d="M16.6667 13.5417H8.33334" stroke="#EA580C" stroke-width="2" stroke-linecap="round" stroke-linejoin="round"/>
<path d="M16.6667 17.7083H8.33334" stroke="#EA580C" stroke-width="2" stroke-linecap="round" stroke-linejoin="round"/>
</svg>
