<svg width="25" height="25" viewBox="0 0 25 25" fill="none" xmlns="http://www.w3.org/2000/svg">
<path d="M16.6667 16.6666L19.7917 8.33331L22.9167 16.6666C22.0104 17.3437 20.9167 17.7083 19.7917 17.7083C18.6667 17.7083 17.5729 17.3437 16.6667 16.6666Z" stroke="#DC2626" stroke-width="2" stroke-linecap="round" stroke-linejoin="round"/>
<path d="M2.08334 16.6666L5.20834 8.33331L8.33334 16.6666C7.42709 17.3437 6.33334 17.7083 5.20834 17.7083C4.08334 17.7083 2.98959 17.3437 2.08334 16.6666Z" stroke="#DC2626" stroke-width="2" stroke-linecap="round" stroke-linejoin="round"/>
<path d="M7.29166 21.875H17.7083" stroke="#DC2626" stroke-width="2" stroke-linecap="round" stroke-linejoin="round"/>
<path d="M12.5 3.125V21.875" stroke="#DC2626" stroke-width="2" stroke-linecap="round" stroke-linejoin="round"/>
<path d="M3.125 7.29165H5.20833C7.29167 7.29165 10.4167 6.24998 12.5 5.20831C14.5833 6.24998 17.7083 7.29165 19.7917 7.29165H21.875" stroke="#DC2626" stroke-width="2" stroke-linecap="round" stroke-linejoin="round"/>
</svg>
