<svg width="30" height="30" viewBox="0 0 30 30" fill="none" xmlns="http://www.w3.org/2000/svg">
<path d="M15 1C22.732 1 29 7.26801 29 15C29 22.732 22.732 29 15 29C7.26801 29 1 22.732 1 15C1 7.26801 7.26801 1 15 1Z" fill="white"/>
<path d="M15 1C22.732 1 29 7.26801 29 15C29 22.732 22.732 29 15 29C7.26801 29 1 22.732 1 15C1 7.26801 7.26801 1 15 1Z" stroke="#273F4F" stroke-width="2"/>
<path d="M21.8333 22.5V20.6667C21.8333 19.6942 21.447 18.7616 20.7594 18.0739C20.0718 17.3863 19.1391 17 18.1667 17H12.6667C11.6942 17 10.7616 17.3863 10.0739 18.0739C9.38631 18.7616 9 19.6942 9 20.6667V22.5" stroke="#273F4F" stroke-width="2" stroke-linecap="round" stroke-linejoin="round"/>
<path d="M15.4167 13.3333C17.4417 13.3333 19.0833 11.6917 19.0833 9.66667C19.0833 7.64162 17.4417 6 15.4167 6C13.3916 6 11.75 7.64162 11.75 9.66667C11.75 11.6917 13.3916 13.3333 15.4167 13.3333Z" stroke="#273F4F" stroke-width="2" stroke-linecap="round" stroke-linejoin="round"/>
</svg>
