<svg width="32" height="32" viewBox="0 0 32 32" fill="none" xmlns="http://www.w3.org/2000/svg">
<path d="M4 24V21.225C4 20.6583 4.14167 20.1333 4.425 19.65C4.70833 19.1667 5.1 18.8 5.6 18.55C5.83333 18.4333 6.05833 18.325 6.275 18.225C6.50833 18.125 6.75 18.0333 7 17.95V24H4ZM8 17C7.16667 17 6.45833 16.7083 5.875 16.125C5.29167 15.5417 5 14.8333 5 14C5 13.1667 5.29167 12.4583 5.875 11.875C6.45833 11.2917 7.16667 11 8 11C8.83333 11 9.54167 11.2917 10.125 11.875C10.7083 12.4583 11 13.1667 11 14C11 14.8333 10.7083 15.5417 10.125 16.125C9.54167 16.7083 8.83333 17 8 17ZM8 15C8.28333 15 8.51667 14.9083 8.7 14.725C8.9 14.525 9 14.2833 9 14C9 13.7167 8.9 13.4833 8.7 13.3C8.51667 13.1 8.28333 13 8 13C7.71667 13 7.475 13.1 7.275 13.3C7.09167 13.4833 7 13.7167 7 14C7 14.2833 7.09167 14.525 7.275 14.725C7.475 14.9083 7.71667 15 8 15ZM8 24V21.2C8 20.6333 8.14167 20.1167 8.425 19.65C8.725 19.1667 9.11667 18.8 9.6 18.55C10.6333 18.0333 11.6833 17.65 12.75 17.4C13.8167 17.1333 14.9 17 16 17C17.1 17 18.1833 17.1333 19.25 17.4C20.3167 17.65 21.3667 18.0333 22.4 18.55C22.8833 18.8 23.2667 19.1667 23.55 19.65C23.85 20.1167 24 20.6333 24 21.2V24H8ZM10 22H22V21.2C22 21.0167 21.95 20.85 21.85 20.7C21.7667 20.55 21.65 20.4333 21.5 20.35C20.6 19.9 19.6917 19.5667 18.775 19.35C17.8583 19.1167 16.9333 19 16 19C15.0667 19 14.1417 19.1167 13.225 19.35C12.3083 19.5667 11.4 19.9 10.5 20.35C10.35 20.4333 10.225 20.55 10.125 20.7C10.0417 20.85 10 21.0167 10 21.2V22ZM16 16C14.9 16 13.9583 15.6083 13.175 14.825C12.3917 14.0417 12 13.1 12 12C12 10.9 12.3917 9.95833 13.175 9.175C13.9583 8.39167 14.9 8 16 8C17.1 8 18.0417 8.39167 18.825 9.175C19.6083 9.95833 20 10.9 20 12C20 13.1 19.6083 14.0417 18.825 14.825C18.0417 15.6083 17.1 16 16 16ZM16 14C16.55 14 17.0167 13.8083 17.4 13.425C17.8 13.025 18 12.55 18 12C18 11.45 17.8 10.9833 17.4 10.6C17.0167 10.2 16.55 10 16 10C15.45 10 14.975 10.2 14.575 10.6C14.1917 10.9833 14 11.45 14 12C14 12.55 14.1917 13.025 14.575 13.425C14.975 13.8083 15.45 14 16 14ZM24 17C23.1667 17 22.4583 16.7083 21.875 16.125C21.2917 15.5417 21 14.8333 21 14C21 13.1667 21.2917 12.4583 21.875 11.875C22.4583 11.2917 23.1667 11 24 11C24.8333 11 25.5417 11.2917 26.125 11.875C26.7083 12.4583 27 13.1667 27 14C27 14.8333 26.7083 15.5417 26.125 16.125C25.5417 16.7083 24.8333 17 24 17ZM24 15C24.2833 15 24.5167 14.9083 24.7 14.725C24.9 14.525 25 14.2833 25 14C25 13.7167 24.9 13.4833 24.7 13.3C24.5167 13.1 24.2833 13 24 13C23.7167 13 23.475 13.1 23.275 13.3C23.0917 13.4833 23 13.7167 23 14C23 14.2833 23.0917 14.525 23.275 14.725C23.475 14.9083 23.7167 15 24 15ZM25 24V17.95C25.25 18.0333 25.4833 18.125 25.7 18.225C25.9333 18.325 26.1667 18.4333 26.4 18.55C26.9 18.8 27.2917 19.1667 27.575 19.65C27.8583 20.1333 28 20.6583 28 21.225V24H25Z" fill="#1D1B20"/>
</svg>
